PathFileType	4	(X/Y/Z)	 s03c0401.trc
DataRate	CameraRate	NumFrames	NumMarkers	Units	OrigDataRate	OrigDataStartFrame	OrigNumFrames
200	200	6	52	mm	200	1	2000
Frame#	Time	racr			lacr			c7			jug			rlel			rdr			llel			ldr			s2			lic			ric			lasi			rasi			rpsi			lpsi			rgt			lgt			rth1			rth2			rth3			rth4			rlfc			rmfc			rsh1			rsh2			rsh3			rsh4			rlmal			rmmal			rcal			rtoe			rmt5			rmt1			lth1			lth2			lth4			lth3			llfc			lmfc			lsh1			lsh2			lsh3			lsh4			llmal			lmmal			lcal			ltoe			lmt1			lmt5			SBIKE			LBIKE			RBIKE			
		X1	Y1	Z1	X2	Y2	Z2	X3	Y3	Z3	X4	Y4	Z4	X5	Y5	Z5	X6	Y6	Z6	X7	Y7	Z7	X8	Y8	Z8	X9	Y9	Z9	X10	Y10	Z10	X11	Y11	Z11	X12	Y12	Z12	X13	Y13	Z13	X14	Y14	Z14	X15	Y15	Z15	X16	Y16	Z16	X17	Y17	Z17	X18	Y18	Z18	X19	Y19	Z19	X20	Y20	Z20	X21	Y21	Z21	X22	Y22	Z22	X23	Y23	Z23	X24	Y24	Z24	X25	Y25	Z25	X26	Y26	Z26	X27	Y27	Z27	X28	Y28	Z28	X29	Y29	Z29	X30	Y30	Z30	X31	Y31	Z31	X32	Y32	Z32	X33	Y33	Z33	X34	Y34	Z34	X35	Y35	Z35	X36	Y36	Z36	X37	Y37	Z37	X38	Y38	Z38	X39	Y39	Z39	X40	Y40	Z40	X41	Y41	Z41	X42	Y42	Z42	X43	Y43	Z43	X44	Y44	Z44	X45	Y45	Z45	X46	Y46	Z46	X47	Y47	Z47	X48	Y48	Z48	X49	Y49	Z49	X50	Y50	Z50	X51	Y51	Z51	X52	Y52	Z52	
1	0.0050	471.532383	1454.040363	-55.079720	468.149267	1472.124715	-370.586968	385.338727	1533.866310	-209.588387	436.108874	1369.679296	-209.209431	519.853195	1183.388770	37.223187	735.170280	985.662975	-4.069016	535.132489	1208.950327	-447.520782	737.733453	979.896116	-430.741626	-103.041154	1205.147498	-238.867163	94.835728	1222.300656	-413.664127	65.422894	1235.543003	-43.345308	108.059313	1141.408234	-375.222875	NaN	NaN	NaN	-76.840106	1255.443410	-192.751859	-65.518212	1251.901917	-276.587345	5.663216	1156.126140	-28.883994	23.300202	1105.459856	-430.348038	130.671314	1070.052317	-9.895107	219.440003	1069.790694	-5.873523	295.500424	1028.609916	-6.071579	229.978251	1103.042710	-18.548983	418.489111	967.964428	-23.787425	427.989715	957.913976	-151.687128	359.678080	813.138351	-12.244037	344.234263	727.716907	-31.962207	284.973742	661.477933	-38.742157	368.875267	718.846849	-59.226026	220.164883	547.143352	-66.468108	243.701298	562.925509	-154.570869	151.808361	504.466613	-109.248580	461.693942	492.186668	-111.559951	342.926058	477.701615	-41.682653	368.093247	493.417946	-156.373260	87.458188	959.705996	-451.051955	143.875895	893.853083	-454.977999	176.852960	909.601527	-449.455452	160.841984	806.589932	-445.674333	232.034927	695.190789	-428.185773	236.093712	683.829118	-304.967212	141.579582	546.482152	-451.117675	127.267670	464.515668	-432.669494	69.136569	394.430113	-425.641883	155.579740	453.838066	-407.548927	9.901284	280.153055	-403.005189	NaN	NaN	NaN	-58.794149	233.075832	-354.142616	249.413905	217.657023	-355.593578	155.621871	216.252158	-313.079072	129.559712	196.830101	-428.266519	-214.640366	946.061588	-230.296751	-5.777605	83.395030	-434.344801	-11.611725	81.212423	-34.350841	
2	0.0100	471.567006	1454.028649	-55.082798	468.138261	1472.093363	-370.621670	385.320750	1533.871687	-209.590254	436.092576	1369.675911	-209.239115	519.865020	1183.406858	37.215121	735.163969	985.683742	-4.073244	535.141231	1208.955329	-447.511243	737.723994	979.913608	-430.745799	-103.051760	1205.121453	-238.820918	94.817304	1222.304024	-413.705119	65.452042	1235.523803	-43.357787	105.932590	1138.643925	-368.978497	85.593128	1169.610756	-87.485023	-76.814341	1255.448879	-192.758991	-65.509773	1251.924332	-276.601862	5.663333	1156.119711	-28.893565	23.294449	1105.479136	-430.362514	130.692763	1070.028098	-9.915509	219.482678	1069.761989	-5.893678	295.517602	1028.599556	-6.115842	230.022848	1103.013005	-18.547420	418.504896	967.931984	-23.795013	427.979371	957.893924	-151.721910	359.674604	813.110741	-12.259076	344.006222	728.225037	-32.811052	284.964930	661.473560	-38.763407	369.616988	719.817467	-59.682703	220.158027	547.137859	-66.478979	243.662998	562.915085	-154.585434	151.806377	504.439668	-109.263499	461.658621	492.204733	-111.532772	342.906427	477.727697	-41.685241	368.070746	493.446553	-156.381394	87.468630	959.731622	-451.080169	143.870382	893.874176	-455.036727	176.859380	909.610328	-449.475943	160.843670	806.590115	-445.693629	232.041386	695.186944	-428.201900	236.109195	683.853701	-304.971776	141.593780	546.477464	-451.130242	127.281460	464.547631	-432.704816	69.156998	394.453963	-425.660772	155.584904	453.853783	-407.563292	9.918360	280.157903	-403.019847	NaN	NaN	NaN	-58.772724	233.073881	-354.163898	249.442567	217.643238	-355.586758	155.624829	216.269567	-313.089158	129.578612	196.823331	-428.256400	-214.651951	946.069011	-230.304902	-5.797896	83.352309	-434.334991	-11.626050	81.276430	-34.362569	
3	0.0150	471.556046	1454.039640	-55.120765	468.137476	1472.130361	-370.653591	385.320897	1533.873242	-209.589699	436.135819	1369.681579	-209.226086	519.871250	1183.429862	37.198977	735.161011	985.687582	-4.084354	535.150395	1208.956674	-447.514074	737.733916	979.905968	-430.747796	-103.043554	1205.121297	-238.812474	94.817304	1222.304024	-413.705119	65.463517	1235.517915	-43.366991	105.932590	1138.643925	-368.978497	85.616345	1169.598301	-87.475737	-76.813605	1255.457955	-192.756023	-65.507531	1251.929208	-276.596508	5.685718	1156.104165	-28.904172	23.287638	1105.500772	-430.371362	130.711873	1070.010120	-9.913946	219.504312	1069.751204	-5.896933	295.540105	1028.571449	-6.139034	230.028781	1103.001231	-18.554179	418.507042	967.923557	-23.812137	427.980702	957.872727	-151.747070	359.676879	813.098890	-12.290992	343.978624	728.236086	-32.812475	284.948412	661.474436	-38.782581	369.608105	719.812078	-59.690424	220.127631	547.129745	-66.494555	243.648858	562.913114	-154.608464	151.790071	504.465482	-109.244051	461.650849	492.215298	-111.556114	342.876306	477.733229	-41.684090	368.058055	493.450726	-156.381329	87.469775	959.734273	-451.096018	143.875884	893.888213	-455.045924	176.861130	909.625493	-449.507340	160.851816	806.599269	-445.716395	232.056693	695.201550	-428.221551	236.138217	683.848446	-304.993659	141.609391	546.470167	-451.138420	127.314936	464.574324	-432.717070	69.178643	394.442455	-425.668089	155.611450	453.856053	-407.581674	9.936138	280.156553	-403.024735	NaN	NaN	NaN	-58.749454	233.085708	-354.160783	249.455656	217.622842	-355.592675	155.656203	216.273895	-313.090826	129.608471	196.799309	-428.253184	-214.649002	946.071704	-230.300392	-5.785535	83.365432	-434.331525	-11.638599	81.254157	-34.354726	
4	0.0200	471.573645	1454.069549	-55.118274	468.147549	1472.133389	-370.676491	385.329078	1533.881717	-209.630281	433.720825	1369.620750	-210.686213	519.882374	1183.438517	37.198875	735.172935	985.695390	-4.099454	536.163786	1208.133855	-444.962889	737.804109	979.760691	-430.825758	-103.043554	1205.121297	-238.812474	94.603416	1221.472555	-411.691159	65.438030	1235.516440	-43.783470	105.399657	1139.141674	-370.036443	85.619151	1169.584143	-87.478534	-76.801905	1255.456660	-192.746171	-65.502682	1251.934308	-276.574441	5.694777	1156.108734	-28.900197	23.019284	1105.569185	-430.715146	130.637615	1069.983495	-9.921341	219.507349	1069.739969	-5.908391	295.697330	1028.533598	-6.024768	229.258322	1103.382374	-19.329475	418.296681	967.736912	-23.610513	428.800920	956.839346	-149.552202	359.668077	813.095919	-12.303718	344.227565	727.708270	-32.001187	284.946369	661.469814	-38.781903	370.065174	719.670683	-59.156089	220.042635	547.156681	-66.367538	243.617305	563.086023	-154.553191	151.790401	504.457302	-109.264867	461.645521	492.237712	-111.544290	342.861269	477.734612	-41.682578	368.050430	493.461949	-156.393283	87.458249	959.722971	-451.131636	144.393282	893.034277	-453.312491	177.337308	909.071889	-448.396649	160.849249	806.601085	-445.724998	232.623388	694.567989	-427.017550	236.147173	683.865137	-305.001996	142.226871	545.599840	-449.651606	127.507661	464.614395	-433.225082	69.198676	394.451201	-425.674083	155.680153	452.480906	-405.157481	9.961904	280.461044	-403.489856	NaN	NaN	NaN	-58.742605	233.105543	-354.143128	249.472906	217.609581	-355.592350	156.153202	214.969816	-311.591945	130.217989	195.244444	-426.123323	-214.719325	946.106794	-230.656845	-5.794233	83.344249	-434.340148	-11.639400	81.262985	-34.375438	
5	0.0250	471.793905	1454.080621	-55.304752	468.155325	1472.143228	-370.690897	385.519184	1534.015295	-210.760830	433.684598	1370.209185	-212.352046	519.065337	1183.788560	36.274237	734.729479	985.949777	-4.712555	535.688090	1208.675160	-446.212576	737.541035	980.229977	-431.351910	-103.032582	1205.074308	-238.920445	94.784773	1221.995472	-412.909028	65.509680	1235.499384	-43.851928	106.356602	1140.122267	-371.638285	85.624621	1169.611799	-87.485777	-76.819351	1255.528397	-192.769275	-65.543559	1252.023612	-276.574475	5.745296	1156.152316	-28.897147	23.115337	1105.599540	-430.651663	130.772426	1070.006731	-9.944360	219.635030	1069.763441	-5.958947	295.853479	1028.485520	-6.138380	229.421533	1103.345559	-19.416408	417.536334	968.313632	-25.065410	428.315298	957.452722	-150.844128	359.764925	813.144353	-12.349267	343.508991	728.071266	-32.892647	285.011489	661.462312	-38.832782	369.622571	720.108991	-60.022759	220.132980	547.132123	-66.421335	243.605057	563.117225	-154.526533	151.762708	504.515528	-109.191981	461.668246	492.225229	-111.638095	342.941638	477.783583	-41.704215	368.055277	493.412127	-156.421031	87.456229	959.749355	-451.114653	144.067389	893.580239	-454.326837	176.961114	909.619588	-449.429197	160.846754	806.625993	-445.743369	232.267911	694.952890	-427.757196	235.641601	684.272634	-305.724566	141.626272	546.462112	-451.143461	127.393271	464.608707	-432.986753	69.247478	394.472106	-425.644807	155.648668	453.446350	-406.713319	9.987095	280.476129	-403.542343	NaN	NaN	NaN	-58.690912	233.105961	-354.083035	249.094430	218.060187	-356.133567	155.815777	216.475825	-313.057135	129.843335	196.164556	-427.351393	-214.727069	946.107688	-230.601063	-6.103280	83.939402	-435.030775	-11.670117	81.322172	-34.389609	
6	0.0300	471.838859	1454.100186	-55.375042	468.158339	1472.142366	-370.729661	385.517787	1534.038703	-210.862346	433.617210	1370.230989	-212.662563	519.096246	1183.836927	36.264455	734.700551	985.969555	-4.802645	535.614344	1208.714540	-446.378279	737.484770	980.211846	-431.415219	-103.017803	1205.084349	-238.943286	94.754941	1222.057424	-413.034750	65.562747	1235.486588	-43.884095	106.561892	1140.306079	-372.105255	85.653848	1169.601779	-87.519001	-76.811375	1255.553087	-192.766538	-65.519819	1252.068869	-276.593410	5.779366	1156.162792	-28.891233	23.142370	1105.566649	-430.574400	130.812755	1070.024826	-9.933568	219.661092	1069.773180	-5.970337	295.876819	1028.488370	-6.188027	229.466528	1103.358302	-19.422809	417.581764	968.349313	-25.200449	428.268826	957.514996	-150.998930	359.797696	813.159171	-12.366296	343.464072	728.081571	-33.020084	285.034238	661.480049	-38.844471	369.622631	720.140443	-60.116382	220.133668	547.147174	-66.402233	243.590941	563.115763	-154.557574	151.756524	504.546747	-109.177470	461.683766	492.247943	-111.644366	342.964198	477.800028	-41.703572	368.055260	493.400460	-156.411258	87.460656	959.748272	-451.104863	144.020314	893.631690	-454.486468	176.930981	909.667643	-449.572160	160.857253	806.638651	-445.751005	232.220672	695.013141	-427.897490	235.642920	684.290357	-305.816500	141.644273	546.449560	-451.169559	127.591004	464.724024	-433.570644	69.287348	394.479662	-425.616378	155.541720	453.852388	-407.466690	9.991858	280.473540	-403.538485	NaN	NaN	NaN	-58.667243	233.105512	-354.108791	249.128343	218.077939	-356.123991	155.877521	216.506416	-313.067646	129.623331	196.808122	-428.279476	-214.720100	946.105084	-230.599439	-6.094993	83.955675	-435.027486	-11.691240	81.341328	-34.441784	
